<?xml version="1.0" encoding="UTF-8" standalone="no"?><!DOCTYPE svg PUBLIC "-//W3C//DTD SVG 1.1//EN" "http://www.w3.org/Graphics/SVG/1.1/DTD/svg11.dtd"><svg width="100%" height="100%" viewBox="0 0 15284 2701" version="1.1" xmlns="http://www.w3.org/2000/svg" xmlns:xlink="http://www.w3.org/1999/xlink" xml:space="preserve" xmlns:serif="http://www.serif.com/" style="fill-rule:evenodd;clip-rule:evenodd;stroke-linejoin:round;stroke-miterlimit:2;"><path d="M2458.33,1761.6l-1135.71,825.121c-18.313,13.316 -42.917,13.296 -61.213,0l-1135.7,-825.121c-18.316,-13.317 -25.937,-36.704 -18.941,-58.229l433.804,-1335.11c6.996,-21.529 26.908,-35.991 49.546,-35.991l1403.8,0c22.621,0 42.533,14.462 49.529,35.992l433.804,1335.1c6.996,21.525 -0.625,44.912 -18.925,58.229m117.988,-90.417l-433.805,-1335.1c-20.97,-64.583 -80.691,-107.971 -148.591,-107.971l-1403.8,0c-67.917,0 -127.621,43.388 -148.609,107.971l-433.804,1335.1c-20.971,64.563 1.825,134.771 56.771,174.688l1135.7,825.121c27.466,19.962 59.654,29.929 91.841,29.929c32.188,0 64.375,-9.984 91.838,-29.93l1135.71,-825.12c54.93,-39.917 77.725,-110.125 56.755,-174.688" style="fill:#509fef;fill-rule:nonzero;"/><path d="M2458.33,939.321l-1135.71,-825.121c-18.313,-13.317 -42.917,-13.296 -61.213,0l-1135.7,825.121c-18.316,13.317 -25.937,36.704 -18.941,58.229l433.804,1335.1c6.996,21.529 26.908,35.992 49.546,35.992l1403.8,0c22.621,0 42.533,-14.463 49.529,-35.992l433.804,-1335.1c6.996,-21.525 -0.625,-44.912 -18.925,-58.229m117.988,90.417l-433.805,1335.11c-20.97,64.583 -80.691,107.967 -148.591,107.967l-1403.8,0c-67.917,0 -127.621,-43.388 -148.609,-107.971l-433.804,-1335.1c-20.971,-64.563 1.825,-134.771 56.771,-174.688l1135.7,-825.121c27.466,-19.962 59.654,-29.929 91.841,-29.929c32.188,0 64.375,9.983 91.838,29.929l1135.71,825.121c54.93,39.917 77.725,110.125 56.755,174.688" style="fill:#509fef;fill-rule:nonzero;"/><path d="M3553.44,1976.37c97.88,0 176.005,-31.321 234.392,-94.029c58.367,-62.654 87.588,-145.538 87.588,-248.559l0,-231.841c0,-103.021 -29.221,-185.85 -87.588,-248.559c-58.387,-62.675 -136.512,-94.008 -234.392,-94.008c-85.887,0 -158.02,21.042 -216.375,63.088c-58.4,42.12 -87.583,97.5 -87.583,166.162l0,458.492c0,68.696 29.183,124.079 87.583,166.146c58.355,42.083 130.488,63.108 216.375,63.108m-584.725,-1494l280.767,0l0,587.292l12.879,0c29.184,-80.692 76.842,-142.95 142.971,-186.734c66.075,-43.787 143.8,-65.695 233.108,-65.695c170,0 301.371,61.425 394.096,184.183c92.742,122.779 139.096,294.933 139.096,516.442c0,221.529 -46.354,393.716 -139.096,516.458c-92.725,122.796 -224.096,184.167 -394.096,184.167c-89.308,0 -167.033,-22.325 -233.108,-66.963c-66.129,-44.633 -113.787,-106.458 -142.971,-185.467l-12.879,0l0,221.525l-280.767,0l0,-1705.21Z" style="fill:#071b2b;fill-rule:nonzero;"/><path d="M4586.33,2187.58c-96.196,0 -167.879,-24.479 -215.087,-73.416c-47.238,-48.942 -70.834,-117.188 -70.834,-204.759l0,-1427.03l280.767,0l0,1349.39c-1.225,96.896 14.333,125.146 84.042,126.566l101.408,0l0,229.25l-180.296,0Z" style="fill:#071b2b;fill-rule:nonzero;"/><path d="M5642.38,1966.06c-12.033,32.641 -27.917,64.391 -47.658,95.312c-19.775,30.921 -44.655,57.95 -74.688,81.129c-30.05,23.192 -66.129,41.667 -108.196,55.4c-42.1,13.713 -90.604,20.588 -145.521,20.588c-139.112,0 -246.891,-44.617 -323.279,-133.942c-76.425,-89.271 -114.616,-217.221 -114.616,-383.8l0,-852.604l280.762,0l0,816.562c0,207.78 85.867,311.667 257.588,311.667c36.041,0 71.233,-4.721 105.608,-14.183c34.321,-9.429 64.808,-23.579 91.437,-42.5c26.617,-18.871 48.059,-42.9 64.396,-72.121c16.3,-29.183 24.479,-63.504 24.479,-103.038l0,-896.387l280.763,0l0,953.017c1.55,146.779 94.55,172.633 216.717,178.983l0,227.054c-156.655,8.517 -456.396,-6.692 -497.48,-241.137l-10.312,0Z" style="fill:#071b2b;fill-rule:nonzero;"/><path d="M7915.42,1976.37c85.833,0 157.966,-21.025 216.354,-63.109c58.35,-42.066 87.583,-97.449 87.583,-166.145l0,-458.492c0,-68.663 -29.233,-124.042 -87.583,-166.163c-58.388,-42.045 -130.521,-63.087 -216.354,-63.087c-97.9,0 -176.08,31.333 -234.43,94.008c-58.366,62.709 -87.55,145.538 -87.55,248.559l0,231.841c0,103.021 29.184,185.904 87.55,248.559c58.35,62.708 136.53,94.029 234.43,94.029m303.937,-10.313l-12.879,0c-29.221,79.009 -76.858,140.834 -142.971,185.467c-66.092,44.637 -143.837,66.963 -233.087,66.963c-170.021,-0.001 -301.375,-61.371 -394.117,-184.167c-92.725,-122.742 -139.096,-294.929 -139.096,-516.459c0,-221.508 46.371,-393.662 139.096,-516.441c92.742,-122.759 224.096,-184.184 394.117,-184.184c89.25,0 166.995,21.909 233.087,65.696c66.113,43.784 113.75,106.042 142.971,186.734l12.879,0l64.396,-221.509l216.371,0l0,1339.42l-280.767,0l0,-221.525Z" style="fill:#071b2b;fill-rule:nonzero;"/><path d="M8994.67,2187.58c-96.196,0 -167.88,-24.479 -215.084,-73.416c-47.241,-48.942 -70.833,-117.188 -70.833,-204.759l0,-1427.03l280.762,0l0,1349.39c-1.225,96.896 14.334,125.146 84.042,126.566l101.408,0l0,229.25l-180.295,0Z" style="fill:#071b2b;fill-rule:nonzero;"/><path d="M9607.75,2187.58c-97.883,0 -171.738,-25.312 -221.513,-75.987c-49.825,-50.642 -74.704,-122.363 -74.704,-215.088l0,-819.112l-208.646,0l0,-229.238l113.35,0c46.338,0 78.542,-10.312 96.6,-30.921c18.021,-20.608 27.03,-54.079 27.03,-100.45l0,-234.412l252.429,0l0,365.783l280.766,0l0,229.238l-280.766,0l0,782.654c2.175,62.608 8.2,98.133 85.004,98.283l175.171,0l0,229.25l-244.721,0Z" style="fill:#071b2b;fill-rule:nonzero;"/><path d="M6146.54,1748.04c26.02,-1.934 52.433,-0.867 78.887,3.525c44.425,7.379 89.354,23.491 130.138,53.37c0,0 117.637,107.792 170.208,136.667c60.921,33.471 131.771,50.208 212.5,50.208c82.412,0 143.8,-15.854 184.167,-47.641c40.345,-31.754 60.554,-75.988 60.554,-132.671c0,-42.883 -14.184,-79.396 -42.517,-109.463c-28.317,-30.016 -77.708,-49.341 -148.108,-57.954l-123.663,-15.466c-137.396,-17.138 -245.121,-57.067 -323.246,-119.775c-78.179,-62.655 -117.204,-155.834 -117.204,-279.48c0,-65.225 11.996,-123.175 36.059,-173.854c24.029,-50.625 57.95,-93.591 101.754,-128.8c43.783,-35.175 96.162,-62.225 157.116,-81.129c60.955,-18.892 128.367,-28.333 202.221,-28.333c120.175,0 218.492,18.904 294.917,56.666c76.404,37.775 144.65,90.138 204.771,157.117l-172.567,164.863c-34.375,-41.234 -79.462,-76.842 -135.225,-106.913c-55.833,-30.017 -119.792,-45.067 -191.896,-45.067c-77.291,0 -134.391,15.45 -171.3,46.371c-36.946,30.904 -55.4,71.267 -55.4,121.059c0,51.512 16.321,90.158 48.959,115.904c32.604,25.762 85,44.687 157.116,56.683l123.646,15.433c147.658,22.346 255.4,65.696 323.267,130.088c67.829,64.392 101.754,150.696 101.754,258.887c0,65.28 -12.483,124.08 -37.363,176.442c-24.895,52.396 -60.52,97.467 -106.891,135.225c-46.371,37.779 -102.171,66.979 -167.413,87.588c-65.312,20.591 -138.266,30.904 -218.958,30.904c-127.121,0 -233.563,-22.329 -319.396,-66.979c-65.571,-34.063 -124.562,-78.213 -177.062,-132.346c-21.217,-21.854 -50.53,-32.484 -79.825,-30.929l0,-240.2Z" style="fill:#071b2b;fill-rule:nonzero;"/><rect x="10847.5" y="147.821" width="54.833" height="2453.39" style="fill:#071b2b;"/><g><path d="M11911.5,1975.75l641.457,-1131.62l178.311,0l186.802,1131.62l-146.663,0l-54.805,-325.746l-457.743,0l-181.399,325.746l-165.96,0Zm412.2,-442.304l374.376,0l-43.999,-284.063c-16.982,-112.699 -27.532,-206.614 -31.648,-281.747c-25.731,64.84 -63.297,141.774 -112.699,230.801l-186.03,335.009Z" style="fill:#071b2b;fill-rule:nonzero;"/><path d="M13065.5,1975.75l236.976,-1131.62l472.409,0c81.822,0 143.189,9.391 184.1,28.174c40.911,18.783 74.747,50.946 101.506,96.489c26.76,45.543 40.139,96.617 40.139,153.224c0,46.829 -9.52,94.43 -28.56,142.803c-19.041,48.373 -43.098,88.255 -72.174,119.646c-29.075,31.391 -58.536,55.063 -88.383,71.016c-29.848,15.953 -61.753,27.789 -95.717,35.508c-72.56,16.982 -145.891,25.473 -219.994,25.473l-283.291,0l-95.717,459.286l-151.294,0Zm274.028,-587.423l249.326,0c96.746,0 167.762,-10.421 213.047,-31.263c45.286,-20.841 81.566,-52.618 108.84,-95.33c27.274,-42.713 40.911,-87.998 40.911,-135.856c0,-37.052 -7.205,-67.285 -21.614,-90.7c-14.409,-23.414 -34.735,-40.654 -60.98,-51.718c-26.245,-11.064 -76.677,-16.596 -151.295,-16.596l-290.238,0l-87.997,421.463Z" style="fill:#071b2b;fill-rule:nonzero;"/><path d="M14142.3,1975.75l236.976,-1131.62l150.522,0l-236.204,1131.62l-151.294,0Z" style="fill:#071b2b;fill-rule:nonzero;"/><path d="M14556.8,1695.54l139.716,-8.491c0,40.139 6.175,74.36 18.526,102.664c12.35,28.303 35.121,51.46 68.314,69.472c33.192,18.011 71.916,27.016 116.172,27.016c61.753,0 108.067,-12.35 138.944,-37.051c30.876,-24.701 46.314,-53.777 46.314,-87.226c0,-24.186 -9.263,-47.086 -27.789,-68.7c-19.04,-21.613 -65.483,-48.244 -139.329,-79.893c-73.846,-31.648 -121.061,-53.905 -141.646,-66.77c-34.478,-21.099 -60.466,-45.928 -77.962,-74.489c-17.497,-28.561 -26.245,-61.367 -26.245,-98.418c0,-64.841 25.73,-120.418 77.191,-166.733c51.46,-46.315 123.505,-69.472 216.134,-69.472c102.922,0 181.27,23.801 235.047,71.402c53.776,47.601 81.693,110.254 83.752,187.96l-136.628,9.263c-2.059,-49.403 -19.555,-88.513 -52.49,-117.331c-32.935,-28.818 -79.507,-43.226 -139.716,-43.226c-48.373,0 -85.939,11.064 -112.698,33.192c-26.76,22.128 -40.14,46.057 -40.14,71.787c0,25.731 11.579,48.373 34.736,67.928c15.438,13.38 55.32,33.964 119.646,61.753c107.038,46.315 174.452,82.852 202.241,109.611c44.256,42.713 66.384,94.688 66.384,155.926c0,40.654 -12.479,80.536 -37.438,119.646c-24.958,39.11 -63.039,70.372 -114.242,93.787c-51.204,23.415 -111.541,35.122 -181.013,35.122c-94.688,0 -175.224,-23.415 -241.608,-70.244c-66.384,-46.829 -97.775,-122.991 -94.173,-228.485Z" style="fill:#071b2b;fill-rule:nonzero;"/></g></svg>